<?xml version="1.0" standalone="no"?>
<!DOCTYPE svg PUBLIC "-//W3C//DTD SVG 20010904//EN"
 "http://www.w3.org/TR/2001/REC-SVG-20010904/DTD/svg10.dtd">
<svg version="1.0" xmlns="http://www.w3.org/2000/svg"
 width="284.000000pt" height="284.000000pt" viewBox="0 0 284.000000 284.000000"
 preserveAspectRatio="xMidYMid meet">
<metadata>
Created by potrace 1.14, written by Peter Selinger 2001-2017
</metadata>
<g transform="translate(0.000000,284.000000) scale(0.100000,-0.100000)"
fill="#000000" stroke="none">
<path d="M550 2225 c-136 -28 -209 -66 -287 -147 -94 -100 -128 -201 -121
-359 3 -83 8 -104 39 -169 71 -148 163 -221 409 -329 111 -48 192 -113 210
-167 15 -46 5 -113 -23 -156 -35 -51 -95 -79 -185 -85 -114 -8 -208 20 -365
108 -31 18 -43 20 -63 11 -13 -7 -24 -18 -24 -26 0 -8 -6 -16 -12 -19 -10 -3
-13 -36 -13 -120 0 -109 1 -117 25 -142 96 -103 389 -161 605 -120 292 54 465
249 465 521 0 127 -32 212 -117 315 -35 42 -144 111 -260 165 -194 90 -241
116 -274 148 -84 81 -90 149 -19 204 85 65 227 55 397 -29 84 -42 106 -45 134
-19 34 31 41 63 42 175 1 135 -6 151 -89 190 -122 58 -329 79 -474 50z"/>
<path d="M1430 2218 c-20 -22 -20 -30 -20 -840 l0 -817 23 -12 c59 -33 320
-16 358 22 16 16 17 45 17 326 0 169 1 325 1 346 l1 37 230 0 230 0 0 -364 c0
-311 2 -365 15 -376 26 -21 181 -25 265 -6 41 10 85 24 98 32 l22 14 0 810 0
810 -27 17 c-21 14 -53 19 -146 22 -65 2 -138 0 -162 -3 -69 -11 -70 -19 -69
-330 l0 -266 -230 0 -231 0 2 273 c2 206 -1 278 -10 291 -19 26 -79 35 -219
36 -118 0 -129 -2 -148 -22z"/>
</g>
</svg>
